<svg xmlns="http://www.w3.org/2000/svg" xmlns:xlink="http://www.w3.org/1999/xlink" width="2000" zoomAndPan="magnify" viewBox="0 0 1500 1499.999933" height="2000" preserveAspectRatio="xMidYMid meet" version="1.0"><defs><g/><clipPath id="301c25116f"><path d="M 274.617188 1.203125 L 914.742188 1.203125 L 914.742188 496 L 274.617188 496 Z M 274.617188 1.203125 " clip-rule="nonzero"/></clipPath><clipPath id="76be178d97"><rect x="0" width="1196" y="0" height="832"/></clipPath></defs><g transform="matrix(1, 0, 0, 1, 154, 261)"><g clip-path="url(#76be178d97)"><path fill="#bdadd6" d="M 571.941406 353.292969 C 571.925781 353.378906 571.941406 353.480469 571.957031 353.566406 L 571.941406 353.566406 L 571.941406 353.292969 " fill-opacity="1" fill-rule="nonzero"/><path fill="#bdadd6" d="M 818.277344 312.074219 C 818.277344 350.390625 787.222656 381.445312 748.90625 381.445312 C 710.597656 381.445312 679.539062 350.390625 679.539062 312.074219 C 679.539062 273.765625 710.597656 242.710938 748.90625 242.710938 C 787.222656 242.710938 818.277344 273.765625 818.277344 312.074219 " fill-opacity="1" fill-rule="nonzero"/><g clip-path="url(#301c25116f)"><path fill="#000000" d="M 867.789062 321.582031 C 867.789062 389.898438 812.210938 445.472656 743.902344 445.472656 C 681.015625 445.472656 628.925781 398.367188 621.054688 337.589844 C 620.925781 336.621094 620.753906 336.609375 620.753906 337.574219 C 612.65625 249.402344 538.308594 180.125 448.070312 180.125 C 352.429688 180.125 274.625 257.929688 274.625 353.566406 L 324.179688 353.566406 C 324.179688 285.25 379.75 229.675781 448.070312 229.675781 C 510.949219 229.675781 563.039062 276.78125 570.914062 337.558594 C 571.039062 338.523438 571.214844 338.539062 571.214844 337.574219 C 579.304688 425.746094 653.65625 495.023438 743.902344 495.023438 C 839.535156 495.023438 917.34375 417.21875 917.34375 321.582031 Z M 532.972656 70.5625 C 532.972656 108.871094 501.914062 139.933594 463.601562 139.933594 C 425.289062 139.933594 394.234375 108.871094 394.234375 70.5625 C 394.234375 32.246094 425.289062 1.191406 463.601562 1.191406 C 501.914062 1.191406 532.972656 32.246094 532.972656 70.5625 " fill-opacity="1" fill-rule="nonzero"/></g><g fill="#bdadd6" fill-opacity="1"><g transform="translate(242.258987, 804.284304)"><g><path d="M 33.609375 0.765625 L 31.765625 0.671875 L 30.03125 0.296875 L 28.09375 -0.390625 L 26.359375 -0.765625 L 22.015625 -2.609375 L 17.859375 -4.828125 L 13.515625 -8.59375 L 9.5625 -12.84375 L 5.40625 -21.25 L 4.0625 -26.75 L 3.46875 -33.796875 L 4.4375 -42.09375 L 5.40625 -46.0625 L 7.828125 -51.46875 L 9.65625 -54.265625 L 12.265625 -57.546875 L 16.421875 -61.3125 L 19.21875 -63.4375 L 26.359375 -66.828125 L 35.734375 -68.65625 L 41.71875 -68.5625 L 43.640625 -68.265625 L 45.484375 -68.171875 L 54.75 -65.078125 L 61.3125 -60.9375 L 64.015625 -58.125 L 65.078125 -56.296875 L 66.4375 -54.65625 L 67.296875 -53.109375 L 68.359375 -51.5625 L 68.953125 -49.53125 L 69.625 -47.796875 L 70.203125 -45.671875 L 69.53125 -43.75 L 67.890625 -42.96875 L 64.984375 -42.6875 L 62.28125 -42.96875 L 60.34375 -42.875 L 58.328125 -42.96875 L 56.578125 -42.78125 L 54.359375 -43.84375 L 52.53125 -45.671875 L 51.46875 -47.125 L 48.671875 -49.921875 L 47.3125 -50.984375 L 45.578125 -51.65625 L 42.578125 -52.53125 L 38.4375 -52.71875 L 31.96875 -51.859375 L 29.359375 -50.40625 L 27.03125 -48.578125 L 24.71875 -45.859375 L 23.75 -44.03125 L 22.3125 -40.5625 L 21.625 -36.6875 L 21.625 -30.796875 L 21.921875 -28.671875 L 22.40625 -26.9375 L 23.078125 -25.59375 L 23.75 -23.65625 L 25.875 -20.28125 L 28.671875 -17.765625 L 32.0625 -16.03125 L 35.53125 -14.78125 L 38.328125 -14.484375 L 43.453125 -14.78125 L 46.828125 -16.609375 L 48.28125 -17.1875 L 49.828125 -18.546875 L 52.046875 -21.046875 L 53.015625 -22.890625 L 54.5625 -24.4375 L 56.78125 -25.59375 L 58.703125 -25.5 L 60.640625 -25.59375 L 62.578125 -25.296875 L 67.984375 -25.6875 L 69.90625 -24.4375 L 70.484375 -22.6875 L 67.984375 -15.359375 L 65.953125 -11.875 L 63.734375 -8.984375 L 61.03125 -6.28125 L 56.296875 -2.890625 L 54.65625 -2.125 L 52.625 -1.453125 L 50.890625 -0.484375 L 45.1875 0.671875 L 38.4375 1.15625 Z M 33.609375 0.765625 "/></g></g></g><g fill="#bdadd6" fill-opacity="1"><g transform="translate(358.186528, 804.284304)"><g><path d="M 56.96875 0.1875 L 54.9375 0 L 52.71875 -0.96875 L 50.796875 -2.40625 L 50.21875 -4.15625 L 49.34375 -5.984375 L 47.515625 -7.53125 L 45.390625 -8.59375 L 43.265625 -8.296875 L 41.515625 -8.5 L 32.0625 -8.40625 L 30.328125 -8.6875 L 26.265625 -8.296875 L 24.4375 -8.59375 L 22.40625 -7.53125 L 20.5625 -5.703125 L 18.828125 -2.515625 L 17 -0.765625 L 14.78125 -0.09375 L 9.359375 0.09375 L 7.4375 -0.09375 L 3.671875 0.09375 L 1.734375 -0.484375 L 1.25 -2.890625 L 1.828125 -4.828125 L 3.765625 -8.6875 L 4.25 -10.421875 L 5.3125 -11.78125 L 6.765625 -15.640625 L 8.5 -18.734375 L 9.171875 -20.671875 L 10.140625 -22.109375 L 10.71875 -24.234375 L 20.5625 -44.90625 L 21.140625 -46.640625 L 22.203125 -48.46875 L 22.6875 -50.40625 L 23.75 -51.859375 L 27.609375 -60.734375 L 28.484375 -62.09375 L 29.15625 -64.015625 L 30.03125 -65.65625 L 31.765625 -67.296875 L 34.859375 -68.359375 L 38.046875 -67.40625 L 39.6875 -65.65625 L 41.515625 -62.28125 L 42.09375 -60.546875 L 43.15625 -58.8125 L 43.75 -56.875 L 50.109375 -43.453125 L 50.796875 -41.421875 L 52.8125 -37.859375 L 53.40625 -36.3125 L 54.265625 -34.859375 L 54.84375 -32.734375 L 55.8125 -30.90625 L 56.78125 -29.453125 L 60.453125 -20.671875 L 62.375 -17.1875 L 63.734375 -13.609375 L 66.34375 -8.59375 L 67.78125 -5.015625 L 68.46875 -2.796875 L 68.171875 -0.484375 L 65.46875 0 L 62.46875 0.09375 L 60.640625 -0.09375 Z M 35.046875 -23.84375 L 38.921875 -23.953125 L 40.359375 -24.71875 L 40.75 -26.453125 L 36.203125 -37.078125 L 34.859375 -37.859375 L 33.796875 -36.984375 L 29.265625 -26.546875 L 29.359375 -24.71875 L 30.90625 -24.046875 L 33.125 -24.234375 Z M 35.046875 -23.84375 "/></g></g></g><g fill="#bdadd6" fill-opacity="1"><g transform="translate(471.509584, 804.284304)"><g><path d="M 7.234375 -3.953125 L 7.234375 -18.25 L 7.046875 -20.1875 L 7.140625 -28 L 7.34375 -29.84375 L 7.140625 -31.671875 L 7.140625 -33.609375 L 7.046875 -35.734375 L 7.34375 -39.59375 L 7.140625 -41.515625 L 7.046875 -63.640625 L 8.203125 -66.34375 L 9.953125 -67.296875 L 15.640625 -67.78125 L 17.765625 -67.6875 L 19.703125 -67.296875 L 21.625 -67.296875 L 23.375 -67.78125 L 25.296875 -67.78125 L 27.234375 -67.40625 L 33.03125 -67.40625 L 35.828125 -67.59375 L 38.921875 -67.5 L 44.421875 -66.234375 L 48.09375 -64.984375 L 51.46875 -63.15625 L 56.96875 -57.359375 L 58.03125 -55.8125 L 58.8125 -54.171875 L 60.546875 -48.671875 L 60.828125 -46.734375 L 61.03125 -40.65625 L 59.765625 -35.046875 L 56 -28.296875 L 54.65625 -27.140625 L 53.296875 -25.6875 L 52.4375 -23.5625 L 52.53125 -21.25 L 53.6875 -19.796875 L 56.78125 -14.78125 L 57.640625 -13.03125 L 60.9375 -8.109375 L 61.703125 -6.28125 L 62.859375 -4.921875 L 63.921875 -2.796875 L 63.34375 -0.671875 L 61.515625 0.1875 L 58.328125 0.296875 L 56.484375 0.09375 L 48.859375 0.1875 L 45.578125 -0.671875 L 43.453125 -2.40625 L 42.390625 -4.0625 L 41.625 -5.984375 L 40.5625 -7.4375 L 38.71875 -10.90625 L 36.6875 -13.8125 L 35.921875 -15.546875 L 34.765625 -17.484375 L 32.828125 -19.125 L 27.234375 -19.890625 L 25.390625 -18.828125 L 24.53125 -16.890625 L 24.328125 -10.71875 L 24.625 -8.6875 L 24.4375 -6.953125 L 24.4375 -3.671875 L 23.5625 -0.875 L 20.46875 0.09375 L 17.578125 0.09375 L 16.03125 0.296875 L 12.9375 0 L 11.015625 0.296875 L 8.203125 -0.96875 Z M 27.234375 -35.34375 L 29.359375 -35.53125 L 33.984375 -35.34375 L 35.828125 -35.4375 L 38.625 -36.109375 L 40.359375 -36.890625 L 41.421875 -37.75 L 42.484375 -39.203125 L 43.359375 -41.140625 L 43.640625 -44.03125 L 43.265625 -46.546875 L 42.6875 -48.09375 L 40.265625 -51.078125 L 38.4375 -51.5625 L 35.921875 -51.75 L 33.21875 -52.34375 L 29.359375 -51.953125 L 27.421875 -52.046875 L 25.390625 -51.28125 L 24.53125 -49.4375 L 24.328125 -45.390625 L 24.53125 -43.75 L 24.53125 -37.953125 L 25.296875 -36.40625 Z M 27.234375 -35.34375 "/></g></g></g><g fill="#bdadd6" fill-opacity="1"><g transform="translate(581.745025, 804.284304)"><g><path d="M 33.609375 0.296875 L 31.671875 0.09375 L 29.734375 0.296875 L 27.515625 0.1875 L 25.6875 -0.1875 L 21.71875 0.09375 L 19.984375 0 L 17.859375 0.1875 L 10.90625 0.09375 L 8.015625 -1.15625 L 7.234375 -3.765625 L 7.046875 -5.890625 L 7.34375 -12.546875 L 7.046875 -14.484375 L 7.234375 -16.3125 L 7.34375 -31.96875 L 7.046875 -33.703125 L 7.140625 -41.625 L 7.34375 -43.453125 L 7.046875 -45.484375 L 7.234375 -54.9375 L 6.953125 -57.0625 L 7.234375 -61.03125 L 7.046875 -64.703125 L 8.109375 -66.71875 L 10.140625 -67.5 L 12.0625 -67.40625 L 14 -67.59375 L 15.734375 -67.40625 L 17.578125 -67.78125 L 19.5 -67.5 L 27.421875 -67.6875 L 29.359375 -67.5 L 31 -67.59375 L 32.921875 -67.40625 L 35.046875 -67.59375 L 42.875 -67.6875 L 44.609375 -67.296875 L 46.640625 -67.296875 L 48.578125 -66.53125 L 49.4375 -64.703125 L 49.640625 -58.90625 L 49.53125 -56.96875 L 49.640625 -55.046875 L 48.671875 -53.296875 L 46.640625 -52.140625 L 44.8125 -52.046875 L 31 -52.234375 L 29.15625 -51.859375 L 27.328125 -51.953125 L 25.203125 -51.171875 L 24.328125 -49.34375 L 24.328125 -46.34375 L 25.109375 -43.359375 L 27.140625 -42.484375 L 32.734375 -42.6875 L 36.796875 -42.390625 L 38.8125 -42.578125 L 44.515625 -42.578125 L 46.734375 -41.328125 L 47.703125 -38.625 L 47.40625 -29.9375 L 46.734375 -28 L 44.8125 -27.234375 L 42.578125 -27.328125 L 40.65625 -27.140625 L 36.6875 -27.234375 L 33.03125 -27.03125 L 29.9375 -27.328125 L 27.03125 -27.234375 L 25.296875 -26.171875 L 24.4375 -24.140625 L 24.4375 -18.0625 L 25.203125 -16.3125 L 27.234375 -15.359375 L 29.359375 -15.546875 L 31.1875 -15.25 L 33.3125 -15.359375 L 35.25 -15.15625 L 38.4375 -15.546875 L 43.359375 -15.453125 L 45.1875 -15.15625 L 47.40625 -15.359375 L 49.4375 -14.484375 L 50.5 -12.546875 L 50.5 -2.796875 L 49.4375 -0.765625 L 47.40625 0.09375 Z M 33.609375 0.296875 "/></g></g></g><g fill="#bdadd6" fill-opacity="1"><g transform="translate(680.305204, 804.284304)"><g><path d="M 33.609375 0.296875 L 31.671875 0.09375 L 29.734375 0.296875 L 27.515625 0.1875 L 25.6875 -0.1875 L 21.71875 0.09375 L 19.984375 0 L 17.859375 0.1875 L 10.90625 0.09375 L 8.015625 -1.15625 L 7.234375 -3.765625 L 7.046875 -5.890625 L 7.34375 -12.546875 L 7.046875 -14.484375 L 7.234375 -16.3125 L 7.34375 -31.96875 L 7.046875 -33.703125 L 7.140625 -41.625 L 7.34375 -43.453125 L 7.046875 -45.484375 L 7.234375 -54.9375 L 6.953125 -57.0625 L 7.234375 -61.03125 L 7.046875 -64.703125 L 8.109375 -66.71875 L 10.140625 -67.5 L 12.0625 -67.40625 L 14 -67.59375 L 15.734375 -67.40625 L 17.578125 -67.78125 L 19.5 -67.5 L 27.421875 -67.6875 L 29.359375 -67.5 L 31 -67.59375 L 32.921875 -67.40625 L 35.046875 -67.59375 L 42.875 -67.6875 L 44.609375 -67.296875 L 46.640625 -67.296875 L 48.578125 -66.53125 L 49.4375 -64.703125 L 49.640625 -58.90625 L 49.53125 -56.96875 L 49.640625 -55.046875 L 48.671875 -53.296875 L 46.640625 -52.140625 L 44.8125 -52.046875 L 31 -52.234375 L 29.15625 -51.859375 L 27.328125 -51.953125 L 25.203125 -51.171875 L 24.328125 -49.34375 L 24.328125 -46.34375 L 25.109375 -43.359375 L 27.140625 -42.484375 L 32.734375 -42.6875 L 36.796875 -42.390625 L 38.8125 -42.578125 L 44.515625 -42.578125 L 46.734375 -41.328125 L 47.703125 -38.625 L 47.40625 -29.9375 L 46.734375 -28 L 44.8125 -27.234375 L 42.578125 -27.328125 L 40.65625 -27.140625 L 36.6875 -27.234375 L 33.03125 -27.03125 L 29.9375 -27.328125 L 27.03125 -27.234375 L 25.296875 -26.171875 L 24.4375 -24.140625 L 24.4375 -18.0625 L 25.203125 -16.3125 L 27.234375 -15.359375 L 29.359375 -15.546875 L 31.1875 -15.25 L 33.3125 -15.359375 L 35.25 -15.15625 L 38.4375 -15.546875 L 43.359375 -15.453125 L 45.1875 -15.15625 L 47.40625 -15.359375 L 49.4375 -14.484375 L 50.5 -12.546875 L 50.5 -2.796875 L 49.4375 -0.765625 L 47.40625 0.09375 Z M 33.609375 0.296875 "/></g></g></g><g fill="#bdadd6" fill-opacity="1"><g transform="translate(778.865382, 804.284304)"><g><path d="M 7.234375 -3.953125 L 7.234375 -18.25 L 7.046875 -20.1875 L 7.140625 -28 L 7.34375 -29.84375 L 7.140625 -31.671875 L 7.140625 -33.609375 L 7.046875 -35.734375 L 7.34375 -39.59375 L 7.140625 -41.515625 L 7.046875 -63.640625 L 8.203125 -66.34375 L 9.953125 -67.296875 L 15.640625 -67.78125 L 17.765625 -67.6875 L 19.703125 -67.296875 L 21.625 -67.296875 L 23.375 -67.78125 L 25.296875 -67.78125 L 27.234375 -67.40625 L 33.03125 -67.40625 L 35.828125 -67.59375 L 38.921875 -67.5 L 44.421875 -66.234375 L 48.09375 -64.984375 L 51.46875 -63.15625 L 56.96875 -57.359375 L 58.03125 -55.8125 L 58.8125 -54.171875 L 60.546875 -48.671875 L 60.828125 -46.734375 L 61.03125 -40.65625 L 59.765625 -35.046875 L 56 -28.296875 L 54.65625 -27.140625 L 53.296875 -25.6875 L 52.4375 -23.5625 L 52.53125 -21.25 L 53.6875 -19.796875 L 56.78125 -14.78125 L 57.640625 -13.03125 L 60.9375 -8.109375 L 61.703125 -6.28125 L 62.859375 -4.921875 L 63.921875 -2.796875 L 63.34375 -0.671875 L 61.515625 0.1875 L 58.328125 0.296875 L 56.484375 0.09375 L 48.859375 0.1875 L 45.578125 -0.671875 L 43.453125 -2.40625 L 42.390625 -4.0625 L 41.625 -5.984375 L 40.5625 -7.4375 L 38.71875 -10.90625 L 36.6875 -13.8125 L 35.921875 -15.546875 L 34.765625 -17.484375 L 32.828125 -19.125 L 27.234375 -19.890625 L 25.390625 -18.828125 L 24.53125 -16.890625 L 24.328125 -10.71875 L 24.625 -8.6875 L 24.4375 -6.953125 L 24.4375 -3.671875 L 23.5625 -0.875 L 20.46875 0.09375 L 17.578125 0.09375 L 16.03125 0.296875 L 12.9375 0 L 11.015625 0.296875 L 8.203125 -0.96875 Z M 27.234375 -35.34375 L 29.359375 -35.53125 L 33.984375 -35.34375 L 35.828125 -35.4375 L 38.625 -36.109375 L 40.359375 -36.890625 L 41.421875 -37.75 L 42.484375 -39.203125 L 43.359375 -41.140625 L 43.640625 -44.03125 L 43.265625 -46.546875 L 42.6875 -48.09375 L 40.265625 -51.078125 L 38.4375 -51.5625 L 35.921875 -51.75 L 33.21875 -52.34375 L 29.359375 -51.953125 L 27.421875 -52.046875 L 25.390625 -51.28125 L 24.53125 -49.4375 L 24.328125 -45.390625 L 24.53125 -43.75 L 24.53125 -37.953125 L 25.296875 -36.40625 Z M 27.234375 -35.34375 "/></g></g></g><g fill="#bdadd6" fill-opacity="1"><g transform="translate(888.135228, 804.284304)"><g><path d="M 25.96875 0.875 L 22.015625 0.1875 L 18.25 -1.15625 L 16.3125 -1.734375 L 14.484375 -2.609375 L 13.125 -4.0625 L 9.75 -6.1875 L 8.5 -7.625 L 7.140625 -8.890625 L 5.3125 -12.453125 L 4.734375 -14.1875 L 4.34375 -16.125 L 4.0625 -18.0625 L 4.828125 -20.078125 L 6.5625 -20.859375 L 14 -21.25 L 15.84375 -20.953125 L 17.578125 -21.140625 L 19.5 -20.375 L 22.6875 -16.890625 L 24.328125 -15.84375 L 25.96875 -14.96875 L 30.90625 -14.484375 L 32.640625 -14.78125 L 35.625 -14.96875 L 38.921875 -16.421875 L 40.171875 -17.859375 L 40.9375 -20.28125 L 40.359375 -22.6875 L 39.109375 -23.84375 L 35.625 -25.5 L 20.46875 -27.234375 L 17 -28.390625 L 10.421875 -31.96875 L 6.859375 -36.40625 L 5.3125 -39.78125 L 4.640625 -43.640625 L 4.53125 -46.640625 L 4.828125 -51.375 L 6.5625 -56.6875 L 9.953125 -61.21875 L 14.578125 -64.40625 L 17.859375 -66.34375 L 21.53125 -67.5 L 23.265625 -67.78125 L 25.203125 -67.890625 L 27.328125 -68.46875 L 34.765625 -68.265625 L 38.53125 -67.5 L 43.9375 -65.65625 L 50.3125 -61.21875 L 52.4375 -58.328125 L 55.140625 -53.296875 L 55.328125 -51.46875 L 55.71875 -49.640625 L 54.9375 -47.984375 L 53.109375 -46.640625 L 51.375 -46.828125 L 49.4375 -46.828125 L 46.828125 -47.03125 L 42.296875 -46.640625 L 40.171875 -47.890625 L 38.71875 -49.828125 L 37.078125 -51.171875 L 35.34375 -52.34375 L 33.609375 -52.8125 L 30.515625 -53.203125 L 27.421875 -53.109375 L 25.6875 -52.71875 L 24.140625 -51.859375 L 22.6875 -50.796875 L 21.53125 -49.53125 L 21.046875 -46.921875 L 21.4375 -44.03125 L 22.890625 -42.6875 L 26.453125 -40.9375 L 31.578125 -39.875 L 34.375 -39.875 L 36.40625 -39.5 L 38.328125 -39.390625 L 40.265625 -39.109375 L 47.796875 -36.796875 L 49.53125 -35.734375 L 51.078125 -34.953125 L 52.8125 -33.40625 L 55.328125 -30.515625 L 56.390625 -28.96875 L 57.84375 -23.375 L 58.03125 -20.28125 L 57.453125 -15.453125 L 56.875 -13.8125 L 56.296875 -12.0625 L 55.234375 -9.953125 L 54.265625 -8.59375 L 51.46875 -5.703125 L 44.90625 -1.734375 L 43.0625 -0.875 L 41.328125 -0.671875 L 39.390625 0.09375 L 37.46875 0.390625 L 35.53125 0.875 L 33.609375 1.0625 Z M 25.96875 0.875 "/></g></g></g><g fill="#000000" fill-opacity="1"><g transform="translate(5.971576, 665.002489)"><g><path d="M 48.828125 -4.390625 L 47.625 -7.765625 L 45.84375 -11.5625 L 29.6875 -56.796875 L 27.90625 -59.984375 L 22.328125 -74.9375 L 21.125 -79.3125 L 12.953125 -101.640625 L 11.15625 -105.03125 L 2.796875 -127.75 L 1.796875 -133.125 L 2.59375 -137.71875 L 6.78125 -138.90625 L 10.96875 -139.109375 L 14.546875 -139.703125 L 18.140625 -138.90625 L 34.078125 -138.703125 L 37.859375 -136.921875 L 41.453125 -133.734375 L 43.046875 -129.75 L 43.84375 -125.75 L 46.234375 -117.984375 L 47.828125 -114.59375 L 60.59375 -71.15625 L 61.390625 -66.359375 L 62.984375 -66.5625 L 65.96875 -74.140625 L 66.765625 -78.328125 L 68.75 -81.3125 L 75.9375 -104.4375 L 78.921875 -111.609375 L 85.5 -131.34375 L 88.890625 -135.328125 L 92.875 -137.3125 L 97.25 -137.3125 L 101.4375 -134.921875 L 104.234375 -130.9375 L 105.828125 -127.34375 L 107.421875 -123.96875 L 109.8125 -115.984375 L 111.40625 -112.203125 L 113.40625 -104.625 L 121.96875 -82.109375 L 122.96875 -78.125 L 126.953125 -66.765625 L 128.9375 -66.5625 L 130.140625 -70.359375 L 131.53125 -78.71875 L 134.125 -87.09375 L 134.921875 -91.078125 L 145.890625 -126.15625 L 147.671875 -129.546875 L 148.671875 -133.328125 L 152.0625 -137.515625 L 156.25 -139.515625 L 160.03125 -138.90625 L 164.21875 -139.3125 L 172.1875 -138.90625 L 179.171875 -139.3125 L 183.15625 -138.703125 L 187.140625 -137.71875 L 188.328125 -132.9375 L 184.546875 -120.78125 L 182.5625 -117.1875 L 181.5625 -112.796875 L 168.796875 -78.921875 L 168 -75.53125 L 166.21875 -71.953125 L 164.625 -66.359375 L 158.046875 -49.421875 L 156.25 -46.03125 L 144.296875 -11.359375 L 142.5 -7.765625 L 141.296875 -3.984375 L 138.3125 -0.40625 L 133.53125 1.203125 L 130.140625 1.796875 L 126.359375 2 L 121.765625 -0.40625 L 117.984375 -4.578125 L 116.78125 -8.375 L 113.796875 -14.953125 L 102.4375 -45.640625 L 99.046875 -52.421875 L 97.859375 -56.59375 L 95.859375 -59.984375 L 93.875 -60.59375 L 91.28125 -52.8125 L 87.6875 -45.234375 L 86.5 -41.0625 L 80.3125 -26.3125 L 79.3125 -23.125 L 77.53125 -18.9375 L 76.53125 -15.546875 L 74.53125 -11.953125 L 73.34375 -7.578125 L 71.546875 -4.1875 L 68.359375 0 L 63.96875 1.59375 L 56.40625 1.796875 L 52.015625 -0.796875 Z M 48.828125 -4.390625 "/></g></g></g><g fill="#000000" fill-opacity="1"><g transform="translate(193.098254, 665.002489)"><g><path d="M 79.921875 2.59375 L 67.953125 2 L 51.015625 -2.984375 L 47.234375 -4.578125 L 33.6875 -11.765625 L 31.09375 -14.75 L 25.515625 -20.125 L 16.140625 -32.890625 L 14.15625 -36.46875 L 12.953125 -40.65625 L 9.96875 -47.4375 L 7.765625 -59.984375 L 8.5625 -83.109375 L 10.171875 -91.671875 L 13.953125 -102.640625 L 15.75 -106.03125 L 22.515625 -115.984375 L 27.90625 -121.96875 L 34.28125 -126.359375 L 37.0625 -128.75 L 47.234375 -135.125 L 54.8125 -137.109375 L 58.390625 -138.703125 L 62.375 -139.90625 L 66.359375 -140.703125 L 80.3125 -141.5 L 89.6875 -141.296875 L 115.796875 -133.125 L 125.953125 -126.75 L 134.53125 -118.984375 L 137.109375 -115.390625 L 139.515625 -113 L 142.09375 -109.609375 L 143.5 -106.03125 L 147.078125 -99.453125 L 148.078125 -94.859375 L 149.671875 -90.6875 L 151.265625 -83.3125 L 152.265625 -69.546875 L 151.265625 -55.609375 L 150.46875 -51.21875 L 149.265625 -48.03125 L 148.671875 -44.046875 L 147.28125 -40.265625 L 139.515625 -26.5 L 136.921875 -22.921875 L 122.96875 -9.5625 L 105.234375 -1.59375 L 97.65625 0.796875 Z M 74.34375 -32.484375 L 85.890625 -32.890625 L 89.6875 -33.875 L 93.265625 -34.28125 L 96.453125 -36.078125 L 100.046875 -37.671875 L 106.21875 -42.453125 L 108.609375 -46.03125 L 110.40625 -49.03125 L 112.609375 -52.015625 L 114.390625 -60.1875 L 115.59375 -70.15625 L 114.796875 -78.71875 L 113.40625 -82.3125 L 112.203125 -86.296875 L 110.609375 -89.890625 L 106.03125 -96.65625 L 99.84375 -101.25 L 89.28125 -105.828125 L 79.71875 -106.421875 L 70.546875 -105.625 L 66.359375 -104.625 L 62.78125 -102.84375 L 57 -98.84375 L 54.015625 -96.265625 L 51.421875 -93.078125 L 49.625 -89.6875 L 47.234375 -86.890625 L 46.03125 -83.3125 L 44.640625 -75.9375 L 44.4375 -69.953125 L 45.4375 -59.984375 L 49.21875 -48.828125 L 51.8125 -46.03125 L 53.8125 -43.25 L 59.984375 -37.859375 L 66.765625 -34.28125 L 70.359375 -33.875 Z M 74.34375 -32.484375 "/></g></g></g><g fill="#000000" fill-opacity="1"><g transform="translate(352.923391, 665.002489)"><g><path d="M 14.953125 -8.171875 L 14.953125 -37.671875 L 14.546875 -41.65625 L 14.75 -57.796875 L 15.140625 -61.578125 L 14.75 -65.375 L 14.75 -69.359375 L 14.546875 -73.734375 L 15.140625 -81.71875 L 14.75 -85.703125 L 14.546875 -131.34375 L 16.9375 -136.921875 L 20.53125 -138.90625 L 32.28125 -139.90625 L 36.671875 -139.703125 L 40.65625 -138.90625 L 44.640625 -138.90625 L 48.234375 -139.90625 L 52.21875 -139.90625 L 56.203125 -139.109375 L 68.15625 -139.109375 L 73.9375 -139.515625 L 80.3125 -139.3125 L 91.671875 -136.71875 L 99.25 -134.125 L 106.21875 -130.34375 L 117.578125 -118.375 L 119.78125 -115.1875 L 121.375 -111.8125 L 124.953125 -100.453125 L 125.5625 -96.453125 L 125.953125 -83.90625 L 123.359375 -72.34375 L 115.59375 -58.390625 L 112.796875 -56 L 110.015625 -53.015625 L 108.21875 -48.625 L 108.421875 -43.84375 L 110.8125 -40.859375 L 117.1875 -30.5 L 118.984375 -26.90625 L 125.75 -16.734375 L 127.34375 -12.953125 L 129.75 -10.171875 L 131.9375 -5.78125 L 130.734375 -1.390625 L 126.953125 0.40625 L 120.375 0.59375 L 116.59375 0.203125 L 100.84375 0.40625 L 94.0625 -1.390625 L 89.6875 -4.984375 L 87.484375 -8.375 L 85.890625 -12.359375 L 83.703125 -15.34375 L 79.921875 -22.515625 L 75.734375 -28.5 L 74.140625 -32.09375 L 71.75 -36.078125 L 67.765625 -39.453125 L 56.203125 -41.0625 L 52.421875 -38.859375 L 50.625 -34.875 L 50.21875 -22.125 L 50.828125 -17.9375 L 50.421875 -14.34375 L 50.421875 -7.578125 L 48.625 -1.796875 L 42.25 0.203125 L 36.265625 0.203125 L 33.078125 0.59375 L 26.703125 0 L 22.71875 0.59375 L 16.9375 -2 Z M 56.203125 -72.9375 L 60.59375 -73.34375 L 70.15625 -72.9375 L 73.9375 -73.140625 L 79.71875 -74.53125 L 83.3125 -76.125 L 85.5 -77.921875 L 87.6875 -80.921875 L 89.484375 -84.90625 L 90.078125 -90.875 L 89.28125 -96.0625 L 88.09375 -99.25 L 83.109375 -105.421875 L 79.3125 -106.421875 L 74.140625 -106.828125 L 68.5625 -108.015625 L 60.59375 -107.21875 L 56.59375 -107.421875 L 52.421875 -105.828125 L 50.625 -102.046875 L 50.21875 -93.671875 L 50.625 -90.28125 L 50.625 -78.328125 L 52.21875 -75.140625 Z M 56.203125 -72.9375 "/></g></g></g><g fill="#000000" fill-opacity="1"><g transform="translate(491.225933, 665.002489)"><g><path d="M 20.734375 0.59375 L 17.140625 -1.796875 L 15.140625 -7.96875 L 14.75 -18.140625 L 15.140625 -22.125 L 14.75 -26.3125 L 14.953125 -29.5 L 14.546875 -37.671875 L 15.140625 -45.84375 L 14.75 -49.421875 L 14.953125 -57.203125 L 14.34375 -61.578125 L 15.140625 -69.75 L 14.546875 -73.140625 L 14.953125 -97.65625 L 14.34375 -101.640625 L 14.953125 -105.625 L 14.546875 -129.9375 L 14.953125 -133.328125 L 16.734375 -137.109375 L 20.734375 -139.703125 L 25.109375 -139.90625 L 29.09375 -139.515625 L 32.890625 -139.703125 L 42.84375 -138.703125 L 48.625 -136.921875 L 51.21875 -133.734375 L 50.828125 -125.5625 L 51.015625 -119.375 L 50.625 -114.59375 L 51.015625 -111.015625 L 51.21875 -96.65625 L 51.015625 -92.875 L 52.015625 -88.6875 L 55.40625 -86.296875 L 59.796875 -86.296875 L 63.78125 -87.484375 L 68.15625 -88.09375 L 71.75 -89.6875 L 78.71875 -94.671875 L 83.3125 -101.046875 L 84.5 -105.234375 L 85.703125 -108.21875 L 87.296875 -121.171875 L 87.09375 -125.15625 L 87.6875 -128.9375 L 87.6875 -133.328125 L 89.28125 -137.109375 L 93.46875 -139.515625 L 99.453125 -139.703125 L 105.421875 -138.90625 L 112 -139.703125 L 117.984375 -139.109375 L 122.375 -137.3125 L 124.15625 -133.328125 L 123.5625 -120.96875 L 123.96875 -116.984375 L 122.5625 -104.234375 L 119.171875 -92.671875 L 117.78125 -89.078125 L 114.796875 -83.90625 L 108.421875 -75.734375 L 102.234375 -70.546875 L 99.65625 -66.359375 L 100.453125 -61.78125 L 107.015625 -51.21875 L 108.609375 -47.828125 L 110.8125 -44.046875 L 113 -41.25 L 119.171875 -31.09375 L 121.765625 -27.90625 L 134.125 -5.375 L 133.125 -1 L 128.9375 0 L 124.953125 -0.203125 L 121.375 0.203125 L 101.25 0.40625 L 96.65625 -1.59375 L 92.875 -5.375 L 90.875 -7.96875 L 88.890625 -11.765625 L 86.5 -14.75 L 82.703125 -22.125 L 80.921875 -24.90625 L 79.515625 -28.296875 L 71.34375 -41.65625 L 69.953125 -45.84375 L 67.953125 -49.03125 L 63.375 -52.421875 L 58 -52.8125 L 53.015625 -50.625 L 50.828125 -47.234375 L 51.421875 -26.3125 L 50.828125 -22.125 L 51.21875 -6.171875 L 49.03125 -1.796875 L 45.046875 -0.203125 L 38.65625 0.40625 L 33.078125 0 Z M 20.734375 0.59375 "/></g></g></g><g fill="#000000" fill-opacity="1"><g transform="translate(629.329186, 665.002489)"><g><path d="M 14.546875 -5.78125 L 14.34375 -65.5625 L 14.75 -70.15625 L 14.34375 -73.9375 L 14.546875 -77.71875 L 14.953125 -81.3125 L 14.546875 -85.890625 L 14.953125 -89.484375 L 14.75 -93.671875 L 14.34375 -97.0625 L 15.140625 -119.375 L 14.546875 -125.359375 L 15.140625 -133.53125 L 16.34375 -137.109375 L 20.734375 -139.3125 L 26.3125 -139.109375 L 30.5 -139.515625 L 40.65625 -139.515625 L 44.25 -139.109375 L 52.015625 -139.109375 L 58.1875 -139.515625 L 62.1875 -139.3125 L 68.15625 -139.703125 L 71.75 -139.3125 L 79.515625 -139.703125 L 83.90625 -139.109375 L 95.859375 -139.3125 L 99.25 -137.109375 L 101.640625 -131.140625 L 101.25 -123.5625 L 101.640625 -113.40625 L 99.65625 -109.40625 L 95.65625 -107.421875 L 80.515625 -107.8125 L 76.328125 -107.421875 L 72.34375 -107.625 L 68.75 -107.421875 L 62.984375 -107.8125 L 56.59375 -107.8125 L 52.8125 -105.234375 L 50.828125 -101.25 L 51.21875 -92.28125 L 50.828125 -88.484375 L 50.828125 -82.90625 L 53.015625 -78.71875 L 57 -77.125 L 61.390625 -77.328125 L 69.15625 -76.328125 L 79.71875 -77.125 L 89.484375 -76.734375 L 93.671875 -75.140625 L 95.65625 -71.15625 L 95.859375 -53.40625 L 93.875 -47.234375 L 89.6875 -45.234375 L 81.515625 -44.84375 L 77.53125 -45.234375 L 73.34375 -45.046875 L 69.359375 -45.4375 L 65.375 -44.640625 L 61.1875 -45.4375 L 56.796875 -45.046875 L 52.8125 -43.25 L 51.015625 -39.265625 L 51.21875 -18.140625 L 50.828125 -14.34375 L 51.421875 -7.96875 L 49.03125 -2 L 44.84375 -0.203125 L 34.875 0.59375 L 20.921875 0 L 16.546875 -2 Z M 14.546875 -5.78125 "/></g></g></g><g fill="#000000" fill-opacity="1"><g transform="translate(737.938535, 665.002489)"><g><path d="M 15.140625 -7.171875 L 14.953125 -81.90625 L 14.546875 -85.703125 L 14.34375 -90.078125 L 14.953125 -97.453125 L 14.546875 -101.4375 L 14.953125 -105.234375 L 14.953125 -133.125 L 16.734375 -137.515625 L 20.921875 -139.109375 L 24.71875 -139.703125 L 32.6875 -138.90625 L 36.671875 -139.703125 L 44.4375 -139.703125 L 48.421875 -137.3125 L 50.421875 -132.9375 L 50.21875 -129.140625 L 50.828125 -117.78125 L 50.421875 -109.8125 L 50.828125 -105.03125 L 50.625 -37.46875 L 52.21875 -33.484375 L 56.203125 -31.890625 L 60.390625 -32.28125 L 68.15625 -31.890625 L 71.75 -32.484375 L 75.734375 -31.6875 L 83.90625 -31.890625 L 88.09375 -31.296875 L 91.875 -32.09375 L 96.0625 -32.484375 L 99.65625 -30.09375 L 101.4375 -24.109375 L 101.640625 -7.96875 L 99.453125 -1.796875 L 95.65625 0.203125 L 56.203125 0 L 51.8125 0.40625 L 48.03125 -0.203125 L 40.453125 0.203125 L 32.6875 -0.203125 L 24.3125 0.40625 L 20.328125 0 L 16.546875 -2 Z M 15.140625 -7.171875 "/></g></g></g><g fill="#000000" fill-opacity="1"><g transform="translate(838.974668, 665.002489)"><g><path d="M 79.921875 2.59375 L 67.953125 2 L 51.015625 -2.984375 L 47.234375 -4.578125 L 33.6875 -11.765625 L 31.09375 -14.75 L 25.515625 -20.125 L 16.140625 -32.890625 L 14.15625 -36.46875 L 12.953125 -40.65625 L 9.96875 -47.4375 L 7.765625 -59.984375 L 8.5625 -83.109375 L 10.171875 -91.671875 L 13.953125 -102.640625 L 15.75 -106.03125 L 22.515625 -115.984375 L 27.90625 -121.96875 L 34.28125 -126.359375 L 37.0625 -128.75 L 47.234375 -135.125 L 54.8125 -137.109375 L 58.390625 -138.703125 L 62.375 -139.90625 L 66.359375 -140.703125 L 80.3125 -141.5 L 89.6875 -141.296875 L 115.796875 -133.125 L 125.953125 -126.75 L 134.53125 -118.984375 L 137.109375 -115.390625 L 139.515625 -113 L 142.09375 -109.609375 L 143.5 -106.03125 L 147.078125 -99.453125 L 148.078125 -94.859375 L 149.671875 -90.6875 L 151.265625 -83.3125 L 152.265625 -69.546875 L 151.265625 -55.609375 L 150.46875 -51.21875 L 149.265625 -48.03125 L 148.671875 -44.046875 L 147.28125 -40.265625 L 139.515625 -26.5 L 136.921875 -22.921875 L 122.96875 -9.5625 L 105.234375 -1.59375 L 97.65625 0.796875 Z M 74.34375 -32.484375 L 85.890625 -32.890625 L 89.6875 -33.875 L 93.265625 -34.28125 L 96.453125 -36.078125 L 100.046875 -37.671875 L 106.21875 -42.453125 L 108.609375 -46.03125 L 110.40625 -49.03125 L 112.609375 -52.015625 L 114.390625 -60.1875 L 115.59375 -70.15625 L 114.796875 -78.71875 L 113.40625 -82.3125 L 112.203125 -86.296875 L 110.609375 -89.890625 L 106.03125 -96.65625 L 99.84375 -101.25 L 89.28125 -105.828125 L 79.71875 -106.421875 L 70.546875 -105.625 L 66.359375 -104.625 L 62.78125 -102.84375 L 57 -98.84375 L 54.015625 -96.265625 L 51.421875 -93.078125 L 49.625 -89.6875 L 47.234375 -86.890625 L 46.03125 -83.3125 L 44.640625 -75.9375 L 44.4375 -69.953125 L 45.4375 -59.984375 L 49.21875 -48.828125 L 51.8125 -46.03125 L 53.8125 -43.25 L 59.984375 -37.859375 L 66.765625 -34.28125 L 70.359375 -33.875 Z M 74.34375 -32.484375 "/></g></g></g><g fill="#000000" fill-opacity="1"><g transform="translate(995.81028, 665.002489)"><g><path d="M 48.828125 -4.390625 L 47.625 -7.765625 L 45.84375 -11.5625 L 29.6875 -56.796875 L 27.90625 -59.984375 L 22.328125 -74.9375 L 21.125 -79.3125 L 12.953125 -101.640625 L 11.15625 -105.03125 L 2.796875 -127.75 L 1.796875 -133.125 L 2.59375 -137.71875 L 6.78125 -138.90625 L 10.96875 -139.109375 L 14.546875 -139.703125 L 18.140625 -138.90625 L 34.078125 -138.703125 L 37.859375 -136.921875 L 41.453125 -133.734375 L 43.046875 -129.75 L 43.84375 -125.75 L 46.234375 -117.984375 L 47.828125 -114.59375 L 60.59375 -71.15625 L 61.390625 -66.359375 L 62.984375 -66.5625 L 65.96875 -74.140625 L 66.765625 -78.328125 L 68.75 -81.3125 L 75.9375 -104.4375 L 78.921875 -111.609375 L 85.5 -131.34375 L 88.890625 -135.328125 L 92.875 -137.3125 L 97.25 -137.3125 L 101.4375 -134.921875 L 104.234375 -130.9375 L 105.828125 -127.34375 L 107.421875 -123.96875 L 109.8125 -115.984375 L 111.40625 -112.203125 L 113.40625 -104.625 L 121.96875 -82.109375 L 122.96875 -78.125 L 126.953125 -66.765625 L 128.9375 -66.5625 L 130.140625 -70.359375 L 131.53125 -78.71875 L 134.125 -87.09375 L 134.921875 -91.078125 L 145.890625 -126.15625 L 147.671875 -129.546875 L 148.671875 -133.328125 L 152.0625 -137.515625 L 156.25 -139.515625 L 160.03125 -138.90625 L 164.21875 -139.3125 L 172.1875 -138.90625 L 179.171875 -139.3125 L 183.15625 -138.703125 L 187.140625 -137.71875 L 188.328125 -132.9375 L 184.546875 -120.78125 L 182.5625 -117.1875 L 181.5625 -112.796875 L 168.796875 -78.921875 L 168 -75.53125 L 166.21875 -71.953125 L 164.625 -66.359375 L 158.046875 -49.421875 L 156.25 -46.03125 L 144.296875 -11.359375 L 142.5 -7.765625 L 141.296875 -3.984375 L 138.3125 -0.40625 L 133.53125 1.203125 L 130.140625 1.796875 L 126.359375 2 L 121.765625 -0.40625 L 117.984375 -4.578125 L 116.78125 -8.375 L 113.796875 -14.953125 L 102.4375 -45.640625 L 99.046875 -52.421875 L 97.859375 -56.59375 L 95.859375 -59.984375 L 93.875 -60.59375 L 91.28125 -52.8125 L 87.6875 -45.234375 L 86.5 -41.0625 L 80.3125 -26.3125 L 79.3125 -23.125 L 77.53125 -18.9375 L 76.53125 -15.546875 L 74.53125 -11.953125 L 73.34375 -7.578125 L 71.546875 -4.1875 L 68.359375 0 L 63.96875 1.59375 L 56.40625 1.796875 L 52.015625 -0.796875 Z M 48.828125 -4.390625 "/></g></g></g></g></g></svg>